<?xml version="1.0" standalone="no"?>
<!DOCTYPE svg PUBLIC "-//W3C//DTD SVG 20010904//EN"
 "http://www.w3.org/TR/2001/REC-SVG-20010904/DTD/svg10.dtd">
<svg version="1.0" xmlns="http://www.w3.org/2000/svg"
 width="500.000000pt" height="500.000000pt" viewBox="0 0 500.000000 500.000000"
 preserveAspectRatio="xMidYMid meet">
<metadata>
Created by potrace 1.11, written by Peter Selinger 2001-2013
</metadata>
<g transform="translate(0.000000,500.000000) scale(0.100000,-0.100000)"
fill="#000000" stroke="none">
<path d="M2955 4458 c-3 -7 -6 -641 -8 -1408 -4 -1508 -2 -1468 -56 -1611 -56
-145 -173 -221 -361 -236 -228 -17 -403 97 -472 306 -22 67 -48 216 -49 286
-1 90 30 86 -369 39 -195 -24 -361 -43 -367 -43 -10 -1 -11 -24 -7 -94 38
-640 316 -1012 844 -1131 175 -39 444 -44 648 -11 297 48 531 175 701 380 151
183 219 360 258 670 16 127 18 264 18 1500 l0 1360 -388 3 c-305 2 -389 0
-392 -10z"/>
</g>
</svg>
